<svg width="613" height="538" viewBox="0 0 613 538" fill="none" xmlns="http://www.w3.org/2000/svg">
<path d="M118.781 287.594C118.844 289.427 119.125 290.875 119.625 291.938C120.125 292.979 120.833 293.729 121.75 294.188C122.667 294.625 123.875 294.844 125.375 294.844C127.646 294.844 129.438 294.198 130.75 292.906C132.062 291.594 132.719 289.771 132.719 287.438C132.719 286.229 132.51 285.167 132.094 284.25C131.677 283.312 131.031 282.406 130.156 281.531C129.302 280.656 127.812 279.438 125.688 277.875C123.708 276.417 122.208 274.802 121.188 273.031C120.188 271.26 119.688 269.406 119.688 267.469C119.688 265.823 120.042 264.208 120.75 262.625C121.458 261.042 122.5 259.667 123.875 258.5C125.271 257.312 127.021 256.406 129.125 255.781C131.229 255.156 133.688 254.844 136.5 254.844C138.583 254.844 140.5 254.958 142.25 255.188C144 255.396 145.802 255.781 147.656 256.344L145.75 265.25H141.656C141.635 262.917 141.177 261.208 140.281 260.125C139.385 259.042 137.938 258.5 135.938 258.5C133.75 258.5 132.021 259.094 130.75 260.281C129.479 261.448 128.844 263.062 128.844 265.125C128.844 266.583 129.344 267.969 130.344 269.281C131.365 270.573 132.896 271.958 134.938 273.438C136.792 274.812 138.219 276.052 139.219 277.156C140.219 278.24 140.969 279.396 141.469 280.625C141.969 281.854 142.219 283.26 142.219 284.844C142.219 286.969 141.708 288.99 140.688 290.906C139.708 292.698 138.385 294.188 136.719 295.375C135.24 296.417 133.719 297.167 132.156 297.625C130.24 298.208 127.792 298.5 124.812 298.5C122.896 298.5 120.885 298.333 118.781 298C116.698 297.667 114.688 297.198 112.75 296.594L114.688 287.594H118.781ZM173.562 268.75L176.375 266.5L179.875 267L175.062 288.781C174.812 289.885 174.625 290.771 174.5 291.438C174.396 292.104 174.344 292.667 174.344 293.125C174.344 294.062 174.573 294.74 175.031 295.156C175.49 295.573 176.302 295.833 177.469 295.938L177.125 298H165.125L166.812 291.594L166.406 291.469C164.99 293.302 163.667 294.729 162.438 295.75C161.229 296.75 160.031 297.458 158.844 297.875C157.677 298.292 156.323 298.5 154.781 298.5C153.323 298.5 152.042 298.156 150.938 297.469C149.833 296.781 148.958 295.698 148.312 294.219C147.667 292.719 147.344 290.823 147.344 288.531C147.344 286.344 147.594 284.135 148.094 281.906C148.615 279.677 149.375 277.604 150.375 275.688C151.375 273.75 152.635 272.094 154.156 270.719C155.677 269.344 157.396 268.302 159.312 267.594C161.25 266.865 163.354 266.5 165.625 266.5C168.729 266.5 171.375 267.25 173.562 268.75ZM168.844 278.562C168.99 277.896 169.104 277.156 169.188 276.344C169.292 275.51 169.344 274.708 169.344 273.938C169.344 272.562 169.083 271.521 168.562 270.812C168.042 270.104 167.188 269.75 166 269.75C164.062 269.75 162.344 270.729 160.844 272.688C159.344 274.625 158.135 277.24 157.219 280.531C156.302 283.823 155.844 286.771 155.844 289.375C155.844 290.896 156.062 292.031 156.5 292.781C156.958 293.531 157.656 293.906 158.594 293.906C159.969 293.906 161.365 293.24 162.781 291.906C164.219 290.552 165.375 288.969 166.25 287.156C167.125 285.344 167.906 282.865 168.594 279.719L168.844 278.562ZM214.688 298H201.719L205.625 281C206.188 278.583 206.531 276.917 206.656 276C206.781 275.083 206.844 274.365 206.844 273.844C206.844 272.906 206.646 272.208 206.25 271.75C205.854 271.292 205.281 271.062 204.531 271.062C203.865 271.062 203.135 271.312 202.344 271.812C201.552 272.312 200.667 273.094 199.688 274.156C198.708 275.219 197.927 276.344 197.344 277.531C196.76 278.719 196.292 280.198 195.938 281.969L192.5 298H183.531L188.438 275.938C188.542 275.438 188.677 274.729 188.844 273.812C189.031 272.875 189.125 272.094 189.125 271.469C189.125 270.594 188.875 270 188.375 269.688C187.896 269.354 187.135 269.146 186.094 269.062L186.562 267L195.156 266.656H198.438L196.656 273.406L197.031 273.531C198.469 271.76 199.802 270.375 201.031 269.375C202.26 268.354 203.479 267.625 204.688 267.188C205.917 266.729 207.271 266.5 208.75 266.5C210.896 266.5 212.583 267.104 213.812 268.312C215.042 269.5 215.656 271.146 215.656 273.25C215.656 274.604 215.448 276.219 215.031 278.094L212.469 289.656C212.26 290.615 212.115 291.354 212.031 291.875C211.969 292.396 211.938 292.844 211.938 293.219C211.938 294.156 212.167 294.812 212.625 295.188C213.104 295.562 213.917 295.812 215.062 295.938L214.688 298ZM246.031 262.688C246.156 262.167 246.302 261.417 246.469 260.438C246.635 259.458 246.719 258.719 246.719 258.219C246.719 257.76 246.667 257.406 246.562 257.156C246.479 256.885 246.344 256.667 246.156 256.5C245.969 256.333 245.719 256.208 245.406 256.125C245.094 256.021 244.479 255.906 243.562 255.781L244.062 253.75L253.406 253.25H256.938L249.062 288.781C248.833 289.802 248.656 290.667 248.531 291.375C248.406 292.062 248.344 292.646 248.344 293.125C248.344 294.062 248.573 294.74 249.031 295.156C249.49 295.573 250.302 295.833 251.469 295.938L251.125 298H239.125L240.812 291.594L240.406 291.469C238.99 293.302 237.667 294.729 236.438 295.75C235.229 296.75 234.031 297.458 232.844 297.875C231.677 298.292 230.323 298.5 228.781 298.5C227.323 298.5 226.042 298.156 224.938 297.469C223.833 296.781 222.958 295.698 222.312 294.219C221.667 292.719 221.344 290.823 221.344 288.531C221.344 286.344 221.594 284.135 222.094 281.906C222.615 279.677 223.365 277.604 224.344 275.688C225.344 273.75 226.604 272.094 228.125 270.719C229.646 269.344 231.365 268.302 233.281 267.594C235.219 266.865 237.323 266.5 239.594 266.5C241.448 266.5 243.24 266.823 244.969 267.469L246.031 262.688ZM242.844 278.562C242.969 277.938 243.083 277.219 243.188 276.406C243.292 275.573 243.344 274.76 243.344 273.969C243.344 272.573 243.083 271.521 242.562 270.812C242.042 270.104 241.188 269.75 240 269.75C238.062 269.75 236.344 270.729 234.844 272.688C233.344 274.625 232.135 277.24 231.219 280.531C230.302 283.823 229.844 286.771 229.844 289.375C229.844 290.896 230.062 292.031 230.5 292.781C230.958 293.531 231.656 293.906 232.594 293.906C233.969 293.906 235.365 293.24 236.781 291.906C238.219 290.552 239.375 288.969 240.25 287.156C241.125 285.344 241.906 282.865 242.594 279.719L242.844 278.562ZM282.281 255.344C285.219 255.344 287.594 255.542 289.406 255.938C291.219 256.333 292.656 256.906 293.719 257.656C294.677 258.323 295.406 259.188 295.906 260.25C296.427 261.292 296.688 262.542 296.688 264C296.688 265.979 296.323 267.698 295.594 269.156C294.885 270.615 293.802 271.896 292.344 273C290.906 274.083 288.99 275.094 286.594 276.031L286.531 276.375C288.49 277.167 290 278.271 291.062 279.688C292.146 281.104 292.688 282.74 292.688 284.594C292.688 286.01 292.49 287.354 292.094 288.625C291.698 289.875 291.125 290.99 290.375 291.969C289.625 292.927 288.635 293.833 287.406 294.688C286.198 295.521 284.948 296.167 283.656 296.625C282.385 297.062 280.854 297.406 279.062 297.656C277.292 297.885 275.177 298 272.719 298H255.75L256.188 295.938C257.062 295.688 257.729 295.344 258.188 294.906C258.667 294.469 259.073 293.854 259.406 293.062C259.74 292.25 260.073 291.083 260.406 289.562L266.094 263.781C266.365 262.552 266.5 261.333 266.5 260.125C266.5 259.25 266.292 258.615 265.875 258.219C265.479 257.802 264.823 257.531 263.906 257.406L264.344 255.344H282.281ZM277.969 274.031C279.802 274.031 281.396 273.625 282.75 272.812C284.125 271.979 285.177 270.833 285.906 269.375C286.635 267.917 287 266.24 287 264.344C287 262.552 286.438 261.219 285.312 260.344C284.188 259.448 282.438 259 280.062 259C278.604 259 277.375 259.052 276.375 259.156L273.094 274.031H277.969ZM268.688 294.25C269.125 294.292 269.812 294.323 270.75 294.344C271.708 294.344 272.354 294.344 272.688 294.344C274.688 294.344 276.323 294.073 277.594 293.531C278.885 292.969 279.927 292.219 280.719 291.281C281.531 290.323 282.156 289.156 282.594 287.781C283.052 286.406 283.281 285 283.281 283.562C283.281 281.625 282.729 280.167 281.625 279.188C280.521 278.188 278.854 277.688 276.625 277.688H272.312L268.688 294.25ZM309.562 298.5C307.271 298.5 305.25 298.094 303.5 297.281C301.771 296.448 300.406 295.198 299.406 293.531C298.427 291.844 297.938 289.792 297.938 287.375C297.938 286.458 298 285.438 298.125 284.312C298.292 282.896 298.583 281.448 299 279.969C299.479 278.26 300.083 276.74 300.812 275.406C301.604 273.906 302.521 272.615 303.562 271.531C304.604 270.427 305.729 269.521 306.938 268.812C308.167 268.083 309.5 267.531 310.938 267.156C312.646 266.719 314.438 266.5 316.312 266.5C318.896 266.5 321.062 266.979 322.812 267.938C324.562 268.875 325.854 270.188 326.688 271.875C327.542 273.562 327.969 275.521 327.969 277.75C327.969 280.5 327.51 283.26 326.594 286.031C325.677 288.802 324.406 291.125 322.781 293C321.177 294.875 319.271 296.26 317.062 297.156C314.854 298.052 312.354 298.5 309.562 298.5ZM306.344 289.406C306.344 291.365 306.656 292.833 307.281 293.812C307.927 294.771 308.938 295.25 310.312 295.25C311.083 295.25 311.812 295.094 312.5 294.781C313.208 294.448 313.896 293.896 314.562 293.125C315.25 292.333 315.865 291.344 316.406 290.156C316.948 288.948 317.458 287.469 317.938 285.719C318.438 283.948 318.823 282.219 319.094 280.531C319.365 278.844 319.5 277.271 319.5 275.812C319.5 273.729 319.177 272.198 318.531 271.219C317.906 270.24 316.927 269.75 315.594 269.75C313.844 269.75 312.323 270.604 311.031 272.312C309.76 274 308.656 276.625 307.719 280.188C306.802 283.729 306.344 286.802 306.344 289.406ZM347.594 277.938C349.469 276.229 350.688 274.896 351.25 273.938C351.812 272.979 352.094 272.021 352.094 271.062C352.094 270.542 351.958 270.104 351.688 269.75C351.417 269.375 350.938 269.146 350.25 269.062L350.719 267H360.812L361.594 269.062C360.677 270.042 359.438 271.302 357.875 272.844C356.312 274.385 354.75 275.885 353.188 277.344C351.646 278.802 350.24 280.104 348.969 281.25L353.312 290.906C353.75 291.823 354.146 292.604 354.5 293.25C354.854 293.896 355.177 294.385 355.469 294.719C355.76 295.031 356.052 295.281 356.344 295.469C356.656 295.656 357.073 295.812 357.594 295.938L357.125 298H346.875L342.469 286.25C340.177 288.271 338.698 289.802 338.031 290.844C337.365 291.865 337.031 292.865 337.031 293.844C337.031 294.406 337.156 294.875 337.406 295.25C337.677 295.625 338.167 295.854 338.875 295.938L338.406 298H328.312L327.5 295.938C328.833 294.521 330.958 292.417 333.875 289.625C336.812 286.812 339.219 284.583 341.094 282.938L337.844 275.562C337.177 274.062 336.646 272.938 336.25 272.188C335.854 271.417 335.49 270.844 335.156 270.469C334.823 270.094 334.49 269.812 334.156 269.625C333.844 269.417 333.365 269.229 332.719 269.062L333.188 267H343.562L347.594 277.938ZM379.062 294.281C380.083 294.281 380.875 294.198 381.438 294.031C382 293.865 382.51 293.604 382.969 293.25C383.427 292.896 383.927 292.406 384.469 291.781C385.031 291.156 385.583 290.344 386.125 289.344C386.667 288.344 387.219 287.094 387.781 285.594H392.031L388.844 298H360.25L360.688 295.938C361.562 295.688 362.229 295.344 362.688 294.906C363.167 294.469 363.573 293.854 363.906 293.062C364.24 292.25 364.573 291.083 364.906 289.562L370.594 263.781C370.865 262.552 371 261.333 371 260.125C371 259.25 370.792 258.615 370.375 258.219C369.979 257.802 369.323 257.531 368.406 257.406L368.844 255.344H384.562L384.125 257.406C383.25 257.656 382.573 258 382.094 258.438C381.635 258.875 381.24 259.5 380.906 260.312C380.573 261.104 380.24 262.26 379.906 263.781L373.156 294.281H379.062ZM413.688 254.531L412.062 262.188H403.969L405.688 254.531H413.688ZM406.469 289.656C406.24 290.698 406.094 291.469 406.031 291.969C405.969 292.469 405.938 292.885 405.938 293.219C405.938 294.115 406.167 294.76 406.625 295.156C407.104 295.552 407.917 295.812 409.062 295.938L408.719 298H395.719L400.594 276.188C400.865 274.938 401.052 273.969 401.156 273.281C401.26 272.573 401.312 271.979 401.312 271.5C401.312 270.688 401.115 270.115 400.719 269.781C400.344 269.427 399.542 269.188 398.312 269.062L398.781 267L407.938 266.656H411.5L406.469 289.656ZM417.375 270.906L417.812 268.844C418.667 268.76 419.302 268.656 419.719 268.531C420.156 268.406 420.531 268.229 420.844 268C421.156 267.75 421.448 267.354 421.719 266.812C421.99 266.271 422.281 265.417 422.594 264.25C423.115 262.271 423.771 260.635 424.562 259.344C425.354 258.031 426.385 256.896 427.656 255.938C428.927 254.958 430.406 254.25 432.094 253.812C433.802 253.354 435.677 253.125 437.719 253.125C438.531 253.125 439.406 253.156 440.344 253.219C441.302 253.281 442.385 253.438 443.594 253.688L442.188 259.938H438.156C438.073 258.646 437.865 257.729 437.531 257.188C437.198 256.646 436.677 256.375 435.969 256.375C435.49 256.375 435.062 256.469 434.688 256.656C434.312 256.844 433.948 257.177 433.594 257.656C433.24 258.135 432.896 258.833 432.562 259.75C432.25 260.646 431.917 261.917 431.562 263.562L430.781 267H436.719L435.875 270.906H429.906L424.25 297.031C423.521 300.385 422.49 303.156 421.156 305.344C419.844 307.531 418.135 309.177 416.031 310.281C413.927 311.406 411.354 311.969 408.312 311.969C407.333 311.969 406.344 311.833 405.344 311.562L406.188 308.156C406.771 308.323 407.458 308.406 408.25 308.406C409.188 308.406 409.958 308.271 410.562 308C411.146 307.75 411.677 307.302 412.156 306.656C412.635 306.031 413.083 305.104 413.5 303.875C413.917 302.646 414.375 300.917 414.875 298.688L421.125 270.906H417.375ZM462.062 291.5C459.958 293.875 457.688 295.635 455.25 296.781C452.833 297.927 450.208 298.5 447.375 298.5C444.938 298.5 442.865 298.073 441.156 297.219C439.448 296.365 438.156 295.104 437.281 293.438C436.427 291.75 436 289.74 436 287.406C436 286.323 436.146 284.938 436.438 283.25C436.833 280.958 437.438 278.917 438.25 277.125C439.271 274.917 440.604 273.021 442.25 271.438C443.896 269.854 445.823 268.635 448.031 267.781C450.26 266.927 452.698 266.5 455.344 266.5C458.469 266.5 460.844 267.073 462.469 268.219C464.094 269.344 464.906 271.073 464.906 273.406C464.906 274.99 464.583 276.385 463.938 277.594C463.312 278.802 462.26 279.896 460.781 280.875C459.302 281.854 457.208 282.646 454.5 283.25C451.812 283.854 448.562 284.198 444.75 284.281C444.479 285.51 444.344 286.781 444.344 288.094C444.344 288.865 444.417 289.604 444.562 290.312C444.708 291 444.969 291.615 445.344 292.156C445.719 292.698 446.219 293.135 446.844 293.469C447.469 293.781 448.271 293.938 449.25 293.938C451.083 293.938 452.74 293.573 454.219 292.844C455.698 292.094 457.438 290.771 459.438 288.875L462.062 291.5ZM445.5 281C449.333 280.896 452.26 280.167 454.281 278.812C456.323 277.438 457.344 275.5 457.344 273C457.344 271.938 457.094 271.135 456.594 270.594C456.115 270.031 455.438 269.75 454.562 269.75C452.625 269.75 450.875 270.708 449.312 272.625C447.771 274.542 446.5 277.333 445.5 281Z" fill="#FCFCFC"/>
<path d="M495.25 249.066C495.25 250.953 494.922 252.717 494.266 254.357C493.609 255.986 492.666 257.41 491.436 258.629C490.217 259.848 488.781 260.785 487.129 261.441C485.488 262.098 483.736 262.426 481.873 262.426C480.033 262.426 478.299 262.109 476.67 261.477C475.053 260.844 473.623 259.93 472.381 258.734C471.15 257.527 470.195 256.092 469.516 254.428C468.836 252.764 468.496 250.977 468.496 249.066C468.496 247.156 468.836 245.369 469.516 243.705C470.195 242.041 471.156 240.611 472.398 239.416C473.641 238.209 475.07 237.289 476.688 236.656C478.305 236.023 480.033 235.707 481.873 235.707C483.736 235.707 485.488 236.035 487.129 236.691C488.781 237.348 490.217 238.285 491.436 239.504C492.666 240.723 493.609 242.152 494.266 243.793C494.922 245.422 495.25 247.18 495.25 249.066ZM492.613 249.066C492.613 246.934 492.156 245.018 491.242 243.318C490.34 241.607 489.062 240.277 487.41 239.328C485.758 238.379 483.906 237.904 481.855 237.904C479.805 237.904 477.959 238.373 476.318 239.311C474.678 240.248 473.4 241.578 472.486 243.301C471.584 245.012 471.133 246.934 471.133 249.066C471.133 251.211 471.584 253.145 472.486 254.867C473.4 256.578 474.678 257.902 476.318 258.84C477.959 259.777 479.805 260.246 481.855 260.246C483.918 260.246 485.775 259.771 487.428 258.822C489.08 257.873 490.357 256.543 491.26 254.832C492.162 253.121 492.613 251.199 492.613 249.066ZM481.592 256.713H474.93V255.641C475.375 255.535 475.68 255.418 475.844 255.289C476.008 255.148 476.119 254.967 476.178 254.744C476.236 254.521 476.266 254.117 476.266 253.531V244.479C476.266 243.904 476.236 243.506 476.178 243.283C476.119 243.061 476.008 242.885 475.844 242.756C475.691 242.615 475.387 242.486 474.93 242.369V241.297H482.172C484.305 241.297 485.852 241.631 486.812 242.299C487.773 242.967 488.254 243.969 488.254 245.305C488.254 246.242 487.955 247.068 487.357 247.783C486.76 248.486 485.875 249.049 484.703 249.471V249.699C485.359 249.945 485.898 250.303 486.32 250.771C486.742 251.229 487.111 251.838 487.428 252.6L487.973 253.883C488.16 254.328 488.33 254.662 488.482 254.885C488.635 255.096 488.811 255.266 489.01 255.395C489.209 255.512 489.473 255.594 489.801 255.641V256.713H485.266C485.008 256.303 484.773 255.904 484.562 255.518C484.363 255.119 484.152 254.65 483.93 254.111L483.051 252.002C482.945 251.744 482.816 251.486 482.664 251.229C482.512 250.971 482.342 250.766 482.154 250.613C481.979 250.461 481.779 250.361 481.557 250.314C481.334 250.268 481.035 250.244 480.66 250.244H480.115V253.531C480.115 254.035 480.15 254.416 480.221 254.674C480.291 254.92 480.42 255.119 480.607 255.271C480.807 255.412 481.135 255.535 481.592 255.641V256.713ZM480.115 243.02V248.574H481.082C481.75 248.574 482.301 248.498 482.734 248.346C483.168 248.182 483.508 247.971 483.754 247.713C484.012 247.443 484.188 247.133 484.281 246.781C484.375 246.418 484.422 246.037 484.422 245.639C484.422 244.771 484.188 244.115 483.719 243.67C483.25 243.213 482.494 242.984 481.451 242.984C480.936 242.984 480.49 242.996 480.115 243.02Z" fill="white"/>
</svg>
